# xmcd CD database file
#
# Track frame offsets:
#	225
#	14598
#	28649
#	46419
#	57369
#	69969
#	88239
#	102754
#	118366
#	135336
#	156951
#	170406
#	194661
#	212366
#
# Disc length: 3077 seconds
#
# Revision: 1
# Processed by: cddbd v1.4PL0 Copyright (c) Steve Scherf et al.
# Submitted via: CDex 1.50beta10
#
DISCID=c40c020e
DTITLE=Foggy Montains Rockers - Early Recordings
DYEAR=1995
DGENRE=Country
TTITLE0=The Way of Rock'n'Roll
TTITLE1=I'm on the Run
TTITLE2=Rheinland Rock'n'Roll
TTITLE3=Long Blonde Hair
TTITLE4=Blues Train to Hell
TTITLE5=Country Roads
TTITLE6=You gonna Rock
TTITLE7=Lonesome Teddyboy
TTITLE8=Rock'n'Roll will never die
TTITLE9=Der Alptraum
TTITLE10=Unchained Melody
TTITLE11=Hang him high
TTITLE12=Noch'n Bier
TTITLE13=Ghostriders in the Sky
EXTD=YEAR: 1995
EXTT0=
EXTT1=
EXTT2=
EXTT3=
EXTT4=
EXTT5=
EXTT6=
EXTT7=
EXTT8=
EXTT9=
EXTT10=
EXTT11=
EXTT12=
EXTT13=
PLAYORDER=
